# xmcd
#
# Track frame offsets:
#	150
#	15093
#	28384
#	44875
#	59789
#	69861
#	82581
#	98615
#	116997
#	130898
#	144914
#	154236
#	167347
#	177966
#	193026
#	201837
#	217839
#	230557
#	243156
#	254959
#
# Disc length: 3584 seconds
#
# Revision: 1
# Processed by: cddbd v1.5.1PL0 Copyright (c) Steve Scherf et al.
# Submitted via: EasyCDDAExtractor 8.1.4.1
#
DISCID=180dfe14
DTITLE=CORNELIO REINA - 20 EXITOS
DYEAR=2002
DGENRE=Ambient
TTITLE0=COMO UN PERRO
TTITLE1=CONOZCO A LOS DOS
TTITLE2=ELLA
TTITLE3=ESTA SELLADO
TTITLE4=LOS BORRACHOS NO SON MACHOS
TTITLE5=SE ME HIZO FACIL
TTITLE6=SENTENCIA
TTITLE7=DESPEDIDA
TTITLE8=MIL BESOS
TTITLE9=COMO BUENOS AMIGOS
TTITLE10=APUNTO DE PERDERTE
TTITLE11=AMARRAME
TTITLE12=AMOR DE PAJA
TTITLE13=CHUPAS
TTITLE14=ES TODO
TTITLE15=ORO ROJO
TTITLE16=PA' ESO ME GUSTABAS
TTITLE17=PERLITA
TTITLE18=SOMOS NIÑOS
TTITLE19=TU FELICIDAD
EXTD=
EXTT0=
EXTT1=
EXTT2=
EXTT3=
EXTT4=
EXTT5=
EXTT6=
EXTT7=
EXTT8=
EXTT9=
EXTT10=
EXTT11=
EXTT12=
EXTT13=
EXTT14=
EXTT15=
EXTT16=
EXTT17=
EXTT18=
EXTT19=
PLAYORDER=
